HIERARCHY
ROOT Hips
{
	OFFSET 0.00000 0.00000 0.00000
	CHANNELS 6 Xposition Yposition Zposition Zrotation Yrotation Xrotation 
	JOINT LHipJoint
	{
		OFFSET 0 0 0
		CHANNELS 3 Zrotation Yrotation Xrotation
		JOINT LeftHip
		{
			OFFSET 1.34019 -1.87553 0.90315
			CHANNELS 3 Zrotation Yrotation Xrotation
			JOINT LeftKnee
			{
				OFFSET 2.55316 -7.01474 0.00000
				CHANNELS 3 Zrotation Yrotation Xrotation
				JOINT LeftAnkle
				{
					OFFSET 2.64657 -7.27139 0.00000
					CHANNELS 3 Zrotation Yrotation Xrotation
					JOINT LeftToe
					{
						OFFSET 0.24207 -0.66507 2.14489
						CHANNELS 3 Zrotation Yrotation Xrotation
						End Site
						{
							OFFSET 0.00000 -0.00000 1.12451
						}
					}
				}
			}
		}
	}
	JOINT RHipJoint
	{
		OFFSET 0 0 0
		CHANNELS 3 Zrotation Yrotation Xrotation
		JOINT RightHip
		{
			OFFSET -1.28320 -1.87553 0.90315
			CHANNELS 3 Zrotation Yrotation Xrotation
			JOINT RightKnee
			{
				OFFSET -2.60484 -7.15674 0.00000
				CHANNELS 3 Zrotation Yrotation Xrotation
				JOINT RightAnkle
				{
					OFFSET -2.60296 -7.15159 0.00000
					CHANNELS 3 Zrotation Yrotation Xrotation
					JOINT RightToe
					{
						OFFSET -0.31082 -0.85398 2.28998
						CHANNELS 3 Zrotation Yrotation Xrotation
						End Site
						{
							OFFSET -0.00000 -0.00000 1.21611
						}
					}
				}
			}
		}
	}
	JOINT lowerback
	{
		OFFSET 0 0 0
		CHANNELS 3 Zrotation Yrotation Xrotation
		JOINT Chest
		{
			OFFSET -0.00160 2.05581 -0.15156
			CHANNELS 3 Zrotation Yrotation Xrotation
			JOINT Chest2
			{
				OFFSET 0.04594 2.06326 -0.01617
				CHANNELS 3 Zrotation Yrotation Xrotation
				JOINT lowerneck
				{
					OFFSET 0 0 0
					CHANNELS 3 Zrotation Yrotation Xrotation
					JOINT Neck
					{
						OFFSET 0.03753 1.73883 0.26751
						CHANNELS 3 Zrotation Yrotation Xrotation
						JOINT Head
						{
							OFFSET -0.09795 1.76129 -0.31794
							CHANNELS 3 Zrotation Yrotation Xrotation
							End Site
							{
								OFFSET -0.03611 1.79987 -0.13846
							}
						}
					}
				}
				JOINT LeftCollar
				{
					OFFSET 0 0 0
					CHANNELS 3 Zrotation Yrotation Xrotation
					JOINT LeftShoulder
					{
						OFFSET 3.30667 1.29205 -0.22445
CHANNELS 3 Zrotation Xrotation Yrotation
						JOINT LeftElbow
						{
OFFSET 0 -4.927850 -0.000000
CHANNELS 3 Zrotation Xrotation Yrotation
							JOINT LeftWrist
							{
OFFSET 0 -3.440520 0.000000
CHANNELS 3 Zrotation Xrotation Yrotation
								JOINT lhand
								{
									OFFSET 0 0 0
CHANNELS 3 Zrotation Xrotation Yrotation
									JOINT LFingers
									{
OFFSET 0 -0.654330 0.000000
CHANNELS 3 Zrotation Xrotation Yrotation
										End Site
										{
OFFSET 0 -0.527530 0.000000
										}
									}
								}
								JOINT LThumb
								{
OFFSET 0 0.000000 0.000000
CHANNELS 3 Zrotation Xrotation Yrotation
									End Site
									{
OFFSET 0 -0.535590 0.535590
									}
								}
							}
						}
					}
				}
				JOINT RightCollar
				{
					OFFSET 0 0 0
					CHANNELS 3 Zrotation Yrotation Xrotation
					JOINT RightShoulder
					{
						OFFSET -3.20032 1.49783 -0.27688
CHANNELS 3 Zrotation Xrotation Yrotation
						JOINT RightElbow
						{
OFFSET 0 -5.091810 -0.000000
CHANNELS 3 Zrotation Xrotation Yrotation
							JOINT RightWrist
							{
OFFSET 0 -3.498650 -0.000000
CHANNELS 3 Zrotation Xrotation Yrotation
								JOINT rhand
								{
									OFFSET 0 0 0
CHANNELS 3 Zrotation Xrotation Yrotation
									JOINT RFingers
									{
OFFSET 0 -0.666410 0.000000
CHANNELS 3 Zrotation Xrotation Yrotation
										End Site
										{
OFFSET 0 -0.537280 0.000000
										}
									}
								}
								JOINT RThumb
								{
OFFSET 0 0.000000 0.000000
CHANNELS 3 Zrotation Xrotation Yrotation
									End Site
									{
OFFSET 0 -0.545480 0.545480
									}
								}
							}
						}
					}
				}
			}
		}
	}
}
MOTION
Frames: 5
Frame Time: 0.008333333333333333
2.205740 19.315386 15.520747 -3.209021 1.146898 0.820889 0.000000 0.000000 0.000000 -15.697485 -1.954800 -6.207084 2.906301 10.541743 30.749566 -0.105766 10.109567 5.173479 1.271461 -7.146700 -20.150728 0.000000 0.000000 0.000000 20.133317 -8.767199 -24.258169 -10.736271 -17.803147 61.921499 1.498267 -21.057790 -8.920811 -0.016152 0.797152 -2.190937 -5.488579 -1.898216 4.832111 2.482852 -2.780190 -0.345935 5.859100 -1.292494 -2.684747 6.477063 0.715937 -22.275012 1.249973 -1.097842 8.403359 -0.744002 -0.192418 6.097931 0.000000 0.000000 0.000000 17.822804 7.293075 -43.208859 36.749422 -46.017749 16.060778 13.403463 -20.621880 5.557654 0.000000 0.000000 0.000000 -7.125000 0.000000 0.000000 -9.869101 24.273124 -5.012319 0.000000 0.000000 0.000000 -16.648837 10.822005 44.961265 -67.198503 -57.930757 -40.391649 -10.518514 -21.884628 -2.798915 0.000000 0.000000 0.000000 7.125000 0.000000 0.000000 12.249965 27.074525 5.448478
2.221654 19.349949 15.655075 -3.046723 1.357435 0.709958 0.000000 0.000000 0.000000 -15.852797 -1.913995 -5.918844 2.926872 10.575763 30.862088 -0.108833 10.021843 5.028987 1.276572 -7.160539 -20.191876 0.000000 0.000000 0.000000 20.139465 -8.846412 -25.229559 -10.571118 -17.718720 61.380789 1.381007 -20.296294 -9.117807 -0.028052 1.080084 -2.969228 -5.627132 -2.129446 4.956306 2.643118 -3.098943 -0.319370 6.130167 -1.450555 -2.666951 6.695446 0.841428 -22.174758 0.971599 -0.945160 8.357760 -0.851433 -0.137629 6.067992 0.000000 0.000000 0.000000 18.787141 7.007553 -44.045417 37.561937 -46.556797 16.647012 12.980702 -20.423935 5.911734 0.000000 0.000000 0.000000 -7.125000 0.000000 0.000000 -10.158790 23.925110 -5.245733 0.000000 0.000000 0.000000 -16.992472 11.214608 44.243254 -69.320283 -58.319616 -42.191953 -10.550331 -22.339280 -2.891379 0.000000 0.000000 0.000000 7.125000 0.000000 0.000000 12.216350 26.982550 5.460033
2.238424 19.379381 15.790259 -2.885871 1.581258 0.601264 0.000000 0.000000 0.000000 -16.011595 -1.877992 -5.630407 2.946653 10.608139 30.969414 -0.125055 9.981938 4.646845 1.291219 -7.199964 -20.309126 0.000000 0.000000 0.000000 20.138575 -8.921019 -26.138198 -10.369129 -17.611599 60.714248 1.278678 -19.606823 -9.348612 -0.044753 1.353874 -3.723313 -5.745820 -2.345877 5.089710 2.802464 -3.397306 -0.267350 6.388146 -1.600592 -2.627251 6.870877 0.957446 -22.171131 0.705064 -0.803200 8.338800 -0.949655 -0.087115 6.062653 0.000000 0.000000 0.000000 19.764502 6.616855 -44.799228 38.400829 -47.089729 17.259753 12.565637 -20.312092 6.112491 0.000000 0.000000 0.000000 -7.125000 0.000000 0.000000 -10.450649 23.733184 -5.449022 0.000000 0.000000 0.000000 -17.335119 11.547947 43.452823 -71.436472 -58.648027 -43.997322 -10.581886 -22.705200 -3.024099 0.000000 0.000000 0.000000 7.125000 0.000000 0.000000 12.179183 26.850583 5.481389
2.255431 19.406281 15.925878 -2.732221 1.797721 0.494271 0.000000 0.000000 0.000000 -16.166476 -1.850574 -5.330178 2.961054 10.631691 31.047579 -0.146460 9.991016 4.182011 1.305946 -7.239350 -20.426376 0.000000 0.000000 0.000000 20.142711 -8.972441 -27.002208 -10.144944 -17.489444 59.970197 1.185607 -18.972072 -9.595005 -0.063432 1.615477 -4.444400 -5.865615 -2.562070 5.229365 2.963669 -3.695945 -0.210463 6.649368 -1.751380 -2.583120 7.063083 1.086323 -22.172805 0.428876 -0.648342 8.325775 -1.052229 -0.030388 6.061033 0.000000 0.000000 0.000000 20.755077 6.198422 -45.475451 39.240155 -47.609089 17.877203 12.141788 -20.235503 6.242780 0.000000 0.000000 0.000000 -7.125000 0.000000 0.000000 -10.752796 23.612594 -5.642142 0.000000 0.000000 0.000000 -17.678835 11.855647 42.665004 -73.538456 -58.941224 -45.795372 -10.615972 -23.008091 -3.181864 0.000000 0.000000 0.000000 7.125000 0.000000 0.000000 12.137782 26.693572 5.507730
2.272619 19.430804 16.061935 -2.584885 2.006129 0.388015 0.000000 0.000000 0.000000 -16.318177 -1.831395 -5.016512 2.969707 10.645838 31.094595 -0.172282 10.048245 3.650691 1.318687 -7.273259 -20.527408 0.000000 0.000000 0.000000 20.150802 -9.001882 -27.823517 -9.900486 -17.353109 59.154695 1.101058 -18.388867 -9.853796 -0.083708 1.864555 -5.131528 -5.989080 -2.780839 5.373937 3.124613 -3.998825 -0.153109 6.913336 -1.904585 -2.537846 7.284099 1.231326 -22.154197 0.139190 -0.476543 8.308500 -1.161843 0.034246 6.056038 0.000000 0.000000 0.000000 21.762720 5.768309 -46.077856 40.078558 -48.115154 18.498001 11.712546 -20.192699 6.309828 0.000000 0.000000 0.000000 -7.125000 0.000000 0.000000 -11.062436 23.555842 -5.824915 0.000000 0.000000 0.000000 -18.020839 12.146227 41.890622 -75.624278 -59.201857 -47.583847 -10.654599 -23.253034 -3.362823 0.000000 0.000000 0.000000 7.125000 0.000000 0.000000 12.090863 26.513366 5.537886
